<?xml version="1.0" encoding="utf-8"?>
<!-- Svg Vector Icons : http://www.onlinewebfonts.com/icon -->
<!DOCTYPE svg PUBLIC "-//W3C//DTD SVG 1.1//EN" "http://www.w3.org/Graphics/SVG/1.1/DTD/svg11.dtd">
<svg version="1.1" xmlns="http://www.w3.org/2000/svg" xmlns:xlink="http://www.w3.org/1999/xlink" x="0px" y="0px" viewBox="0 0 1000 1000" enable-background="new 0 0 1000 1000" xml:space="preserve">
<metadata> Svg Vector Icons : http://www.onlinewebfonts.com/icon </metadata>
<g><path d="M564.4,585.5c-14.3,13.6-24.3,22.1-31,27.5c3.3-17.7,11.8-52.7,32.3-121.6c20.4-68.3,22.2-80.3,22.2-86.1c0-10.2-4.3-19.3-11.7-25.6c-16.7-13.8-46.1-11-81.7,9.1c-19.8,11.1-40.9,29.2-64.4,55l-12.3,13.6l40.7,31.3l10.4-10.3c11.3-11,19-18.1,24.1-22.9c-31.1,102.1-46.2,165.5-46.2,193.9c0,12.9,3.7,23.6,11.3,31.7c7.6,8.3,18.3,12.7,30.6,12.7c12,0,25.8-4.6,42.5-14.1c15.1-8.5,37.7-27.2,69.3-56.9l12.8-12.3l-37-36L564.4,585.5z M951.6,309.1c-24.7-58.3-60.2-110.8-105.1-155.6c-45-45-97.4-80.3-155.6-105.1c-121-51-260.7-51-381.7,0C251,73.1,198.6,108.5,153.6,153.4c-45,44.9-80.5,97.4-105.1,155.6C23,369.7,10,433.7,10,500c0,66.2,12.9,130.2,38.4,190.7C73,749,108.5,801.4,153.5,846.5c44.9,44.9,97.3,80.3,155.6,105c60.6,25.6,124.7,38.4,190.8,38.4c66.2,0,130.3-12.8,190.9-38.5c58.3-24.7,110.7-60,155.6-104.9c45-45,80.4-97.5,105.1-155.8C977.1,630.2,990,566.1,990,500C990.1,433.7,977.2,369.7,951.6,309.1z M927.6,500c0,235.8-191.8,427.5-427.6,427.5C264.3,927.5,72.5,735.7,72.5,500C72.5,264.1,264.3,72.3,500,72.3C735.9,72.3,927.6,264.1,927.6,500z M551.7,246.6c-9.3,10.2-14,22.5-14,36.7c0,11.7,3.8,21.9,11.3,29.8c7.6,8,17.5,12.2,28.8,12.2c9.1,0,22.7-2.8,35.1-16.6c9.7-10.4,14.6-23,14.6-36.9c0-11.4-4-21.5-11.5-29.2C599.4,225.7,569.4,227.5,551.7,246.6z"/></g>
</svg>