<?xml version="1.0" encoding="utf-8"?>
<!-- Svg Vector Icons : http://www.onlinewebfonts.com/icon -->
<!DOCTYPE svg PUBLIC "-//W3C//DTD SVG 1.1//EN" "http://www.w3.org/Graphics/SVG/1.1/DTD/svg11.dtd">
<svg version="1.1" xmlns="http://www.w3.org/2000/svg" xmlns:xlink="http://www.w3.org/1999/xlink" x="0px" y="0px" viewBox="0 0 1000 1000" enable-background="new 0 0 1000 1000" xml:space="preserve">
<metadata> Svg Vector Icons : http://www.onlinewebfonts.com/icon </metadata>
<g><g transform="translate(0.000000,511.000000) scale(0.100000,-0.100000)"><path d="M566.7,4092c-191.9-37.1-327.1-104.7-381.6-191.9c-87.2-143.9-89.4-250.8-82.9-2939.5c6.5-2416.1,8.7-2590.6,45.8-2699.6c48-141.7,139.6-248.6,248.6-287.9c63.2-24,320.5-32.7,1109.9-41.4c824.3-10.9,1033.6-19.6,1062-43.6c32.7-26.2,37.1-109,37.1-791.6c0-802.5,4.4-852.6,102.5-939.8c63.2-56.7,181-69.8,268.2-30.5c41.4,17.4,499.4,403.4,1014,854.8c667.3,586.6,972.6,839.6,1057.6,881l119.9,56.7l2147.9,10.9c2376.9,13.1,2283.1,6.5,2451.1,152.6c139.6,122.1,133,2.2,133,2922.1c0,2533.9-2.2,2653.9-41.4,2769.4c-61.1,178.8-126.5,253-259.5,298.8c-106.9,37.1-355.4,39.2-4496.5,43.6C1611.3,4118.2,688.9,4113.8,566.7,4092z M8458.6,2681.1c72-56.7,78.5-172.3,13.1-237.7c-43.6-43.6-72-43.6-3467.3-43.6c-3395.3,0-3423.6,0-3467.2,43.6c-65.4,65.4-58.9,181,13.1,237.7l58.9,45.8h3395.3h3395.3L8458.6,2681.1z M8458.6,1285.5c72-56.7,78.5-172.3,13.1-237.7c-43.6-43.6-72-43.6-3467.3-43.6c-3395.3,0-3423.6,0-3467.2,43.6c-65.4,65.4-58.9,181,13.1,237.7l58.9,45.8h3395.3h3395.3L8458.6,1285.5z M4271.7-110.1c72-56.7,78.5-172.3,13.1-237.7c-43.6-43.6-72-43.6-1373.8-43.6c-1301.9,0-1330.2,0-1373.8,43.6c-65.4,65.4-58.9,181,13.1,237.7c56.7,45.8,76.3,45.8,1360.7,45.8C4195.4-64.3,4215-64.3,4271.7-110.1z"/></g></g>
</svg>