<?xml version="1.0" encoding="utf-8"?>
<!-- Svg Vector Icons : http://www.onlinewebfonts.com/icon -->
<!DOCTYPE svg PUBLIC "-//W3C//DTD SVG 1.1//EN" "http://www.w3.org/Graphics/SVG/1.1/DTD/svg11.dtd">
<svg version="1.1" xmlns="http://www.w3.org/2000/svg" xmlns:xlink="http://www.w3.org/1999/xlink" x="0px" y="0px" viewBox="0 0 1000 1000" enable-background="new 0 0 1000 1000" xml:space="preserve">
<metadata> Svg Vector Icons : http://www.onlinewebfonts.com/icon </metadata>
<g><g transform="translate(0.000000,512.000000) scale(0.100000,-0.100000)"><path d="M2029.6,4990c-166.5-40.2-298.6-114.9-428.8-245c-224-224-275.7-392.4-275.7-905.5v-350.3h-195.3c-348.4,0-555.2-76.6-754.2-275.7c-65.1-65.1-139.7-162.7-168.5-218.2C96.2,2775.1,100,2937.8,100-498.4c0-2802.6,3.8-3170.1,30.6-3300.3c78.5-380.9,317.8-687.2,668.1-857.6c275.7-134,17.2-126.3,4268.9-120.6l3828.6,5.7l157,53.6c178,59.4,405.8,202.9,513,321.6c116.8,128.3,218.2,300.6,273.8,465.2l51.7,155.1l5.7,3978c5.7,4345.5,11.5,4098.6-103.4,4324.4c-65.1,128.3-258.4,321.6-386.7,386.7c-222.1,112.9-26.8,107.2-3803.8,105.3C2716.9,5016.8,2119.6,5013,2029.6,4990z M9147.1,4358.3c28.7-21.1,70.8-63.2,91.9-91.9l40.2-51.7V248.2v-3966.5l-42.1-90c-51.7-114.9-193.3-256.5-308.2-308.2l-90-42.1H5000.7H1162.5l-90,42.1c-114.9,51.7-256.5,193.3-308.2,308.2l-42.1,90v3200.8v3200.7l40.2,51.7c84.2,114.9,128.3,132.1,354.2,137.8l208.7,7.7L1329-238l5.7-3120.3l51.7-67c139.7-181.9,421.1-155.1,513,47.9c36.4,78.5,38.3,174.2,38.3,3807.6c0,2592,5.7,3742.5,21.1,3780.8c26.8,70.8,90,139.7,160.8,170.4c47.9,21.1,662.4,24.9,3516.6,21.1l3459.2-3.8L9147.1,4358.3z"/><path d="M2722.6,3753.3c-63.2-32.5-97.6-67-128.3-130.2l-44-84.2V2417.1V1295.4l44-84.2c30.6-63.2,65.1-97.6,128.3-128.3l84.2-44h1121.8h1121.8l84.2,44c63.2,30.6,97.6,65.1,130.2,128.3l42.1,84.2v1121.8v1121.8l-42.1,84.2c-32.5,63.2-67,97.6-130.2,130.2l-84.2,42.1H3928.6H2806.9L2722.6,3753.3z M4694.4,2417.1v-765.7h-765.7h-765.7v765.7v765.7h765.7h765.7V2417.1z"/><path d="M6003.8,3159.9c-90-42.1-107.2-164.6-36.4-235.5l45.9-47.9h1274.9c781,0,1288.3,7.7,1309.4,19.1c19.1,9.6,45.9,44,59.3,76.6c30.6,72.7,0,157-68.9,189.5C8524.9,3190.5,6063.1,3188.6,6003.8,3159.9z"/><path d="M6003.8,2241c-90-42.1-107.2-164.6-36.4-235.5l45.9-47.9h1274.9c781,0,1288.3,7.7,1309.4,19.1c19.1,9.6,45.9,44,59.3,76.6c30.6,72.7,0,157-68.9,189.5C8524.9,2271.7,6063.1,2269.7,6003.8,2241z"/><path d="M6003.8,1322.2c-90-42.1-107.2-164.6-36.4-235.5l45.9-47.9h1274.9c781,0,1288.3,7.7,1309.4,19.1c19.1,9.6,45.9,44,59.3,76.6c30.6,72.7,0,157-68.9,189.5C8524.9,1352.8,6063.1,1350.9,6003.8,1322.2z"/><path d="M2632.7,403.3c-53.6-24.9-88.1-111-70.8-176.1C2590.5,112.3,2381.9,120,5609.4,120c1855,0,2967.2,7.7,2988.3,19.1c19.1,9.6,45.9,44,59.3,76.6c30.6,72.7,0,157-68.9,189.5C8523,433.9,2693.9,433.9,2632.7,403.3z"/><path d="M2632.7-515.6c-90-44-101.5-197.2-19.1-254.6c61.3-44,5938.2-44,5999.5,0c84.2,59.4,70.8,212.5-24.9,256.5C8523-485,2693.9-485,2632.7-515.6z"/><path d="M2632.7-1434.5c-90-44-101.5-197.2-19.1-254.6c61.3-42.1,2569-42.1,2630.3,0c84.2,59.4,70.8,212.5-24.9,256.5C5153.8-1403.8,2693.9-1405.8,2632.7-1434.5z"/><path d="M6001.9-1434.5c-90-44-101.5-197.2-19.1-254.6c61.3-42.1,2569-42.1,2630.3,0c84.2,59.4,70.8,212.5-24.9,256.5C8523-1403.8,6063.1-1405.8,6001.9-1434.5z"/><path d="M2632.7-2353.4c-90-44-101.5-197.2-19.1-254.6c61.3-42.1,2569-42.1,2630.3,0c84.2,59.4,70.8,212.5-24.9,256.5C5153.8-2322.7,2693.9-2324.6,2632.7-2353.4z"/><path d="M6001.9-2353.4c-90-44-101.5-197.2-19.1-254.6c61.3-42.1,2569-42.1,2630.3,0c84.2,59.4,70.8,212.5-24.9,256.5C8523-2322.7,6063.1-2324.6,6001.9-2353.4z"/><path d="M2632.7-3272.2c-90-44-101.5-197.2-19.1-254.6c61.3-42.1,2569-42.1,2630.3,0c84.2,59.3,70.8,212.5-24.9,256.5C5153.8-3241.6,2693.9-3243.5,2632.7-3272.2z"/><path d="M6001.9-3272.2c-90-44-101.5-197.2-19.1-254.6c61.3-42.1,2569-42.1,2630.3,0c84.2,59.3,70.8,212.5-24.9,256.5C8523-3241.6,6063.1-3243.5,6001.9-3272.2z"/></g></g>
</svg>