<?xml version="1.0" encoding="utf-8"?>
<!-- Svg Vector Icons : http://www.onlinewebfonts.com/icon -->
<!DOCTYPE svg PUBLIC "-//W3C//DTD SVG 1.1//EN" "http://www.w3.org/Graphics/SVG/1.1/DTD/svg11.dtd">
<svg version="1.1" xmlns="http://www.w3.org/2000/svg" xmlns:xlink="http://www.w3.org/1999/xlink" x="0px" y="0px" viewBox="0 0 1000 1000" enable-background="new 0 0 1000 1000" xml:space="preserve">
<metadata> Svg Vector Icons : http://www.onlinewebfonts.com/icon </metadata>
<g><g transform="translate(0.000000,511.000000) scale(0.100000,-0.100000)"><path d="M1220.8,4003.3c-28.6-18.4-65.4-57.3-79.8-85.9c-12.3-28.6-253.6-554.3-531.8-1167.9L100,1634.9v-143.2c0-292.5,120.7-576.8,341.6-795.6C580.6,554.9,811.8,420,985.6,377l96.1-24.6v-1967.6c0-1317.2,8.2-1992.1,22.5-2043.3c14.3-53.2,43-90,85.9-118.6c63.4-38.9,128.9-38.9,3845.2-34.8l3781.8,6.1l59.3,67.5l59.3,65.4v2012.6V350.4l145.2,47c253.6,81.8,468.4,243.4,619.7,466.3c177.9,261.8,239.3,560.4,173.8,867.2c-14.3,65.4-220.9,507.2-519.5,1112.6c-272,550.2-501.1,1020.6-509.3,1045.2c-6.1,22.5-36.8,63.4-65.4,90l-53.2,49.1l-3724.5,4.1C1558.3,4036,1272,4034,1220.8,4003.3z M8945.9,2704.6c247.5-499.1,466.3-947,484.7-998.1c49.1-135,47-360-8.2-505.2c-59.3-159.5-210.7-310.9-374.3-374.3c-165.7-63.4-421.3-65.4-584.9-2c-153.4,59.3-288.4,180-357.9,323.2c-47.1,92-59.3,151.3-67.5,323.2c-10.2,186.1-18.4,216.8-61.3,263.8c-106.3,112.5-302.7,81.8-362-59.3c-16.4-38.9-28.6-135-28.6-218.8c0-192.3-47-323.2-161.6-450c-267.9-298.6-789.5-312.9-1071.7-30.7c-124.8,124.8-182,274.1-196.4,507.2c-10.2,173.9-18.4,206.6-61.4,251.6c-65.4,69.5-163.6,85.9-253.6,42.9c-94.1-45-112.5-90-122.7-308.8c-6.1-143.2-20.4-212.7-61.3-300.7c-128.9-284.3-454.1-441.8-789.5-382.5c-175.9,30.7-304.8,100.2-417.2,225s-157.5,247.5-157.5,427.5c0,190.2-30.7,282.3-108.4,331.3c-85.9,55.2-206.6,40.9-278.2-30.7c-47-49.1-55.2-73.6-65.5-257.7c-10.2-173.9-22.5-222.9-77.7-337.5c-120.7-243.4-339.5-368.2-646.3-366.1c-222.9,2.1-372.2,61.4-513.4,200.4c-135,137-192.3,282.3-192.3,495c0,175.9-32.7,257.7-122.7,304.7c-79.8,40.9-141.1,38.9-220.9-10.2c-85.9-53.2-106.4-110.4-106.4-296.6c0-300.7-157.5-544.1-419.3-644.3c-171.8-65.4-421.3-65.4-591.1,0c-233.2,90-398.8,317-415.2,572.7l-10.2,132.9L959,2483.7c239.3,523.6,452,989.9,472.5,1039l36.8,85.9h3515.9H8498L8945.9,2704.6z M2274.2,737c40.9-49.1,141.1-135,225-190.2c464.3-310.9,996.1-257.7,1415.4,139.1l153.4,145.2l92-102.3c261.8-290.4,672.9-435.7,1026.7-364.1c233.2,47.1,437.7,155.4,609.5,323.2L5937.3,827l124.8-120.7c239.3-237.3,513.4-357.9,807.9-357.9c310.9,0,570.6,110.4,805.9,341.6l141.1,137l120.7-122.7c135-135,300.7-243.4,462.2-298.6l106.3-38.9v-1875.6v-1877.6h-439.7h-439.7v1352v1351.9l-69.6,69.6l-69.5,69.5H6215.4H4943.3l-69.5-69.5l-69.5-69.6v-1351.9v-1352l-1640.3,4.1l-1642.4,6.1l-2.1,1867.4c0,1304.9,6.1,1871.4,20.5,1883.7c12.3,8.2,71.6,34.8,132.9,59.3c141.1,57.3,351.8,208.6,435.7,310.9c34.8,45,69.5,81.8,77.7,81.8C2192.3,827,2231.2,786.1,2274.2,737z M7197.2-2179.6v-1206.7h-981.7h-981.7v1206.7v1206.7h981.7h981.7V-2179.6z"/></g></g>
</svg>